<?xml version="1.0" encoding="UTF-8"?>
<svg id="Layer_1" data-name="Layer 1" xmlns="http://www.w3.org/2000/svg" viewBox="0 0 716.65 801.44">
  <defs>
    <style>
      .cls-1 {
        fill: #ea9e3a;
        stroke-width: 0px;
      }
    </style>
  </defs>
  <path class="cls-1" d="M296.55,400.51l6.42-23.44,2.23-14.23-13.67-13.12-43.53-23.44-20.37-11.72-93.49-69.21-26.23-20.93s-13.67-15.07-26.79,2.23c-13.12,17.3-6.98,23.16,3.35,28.47s54.14,24.72,54.14,24.72l50.83,26.35,38.48,20.37,3.63,7.53,17.02,18.42,14.51,2.23,9.49,1.4,12.28,8.93,5.86,7.53,4.19,12.28,1.67,15.63Z"/>
  <path class="cls-1" d="M404.55,400.51l-6.42-23.44-2.23-14.23,13.67-13.12,43.53-23.44,20.37-11.72,93.49-69.21,26.23-20.93s13.67-15.07,26.79,2.23c13.12,17.3,6.98,23.16-3.35,28.47-10.33,5.3-54.14,24.72-54.14,24.72l-50.83,26.35-38.48,20.37-3.63,7.53-17.02,18.42-14.51,2.23-9.49,1.4-12.28,8.93-5.86,7.53-4.19,12.28-1.67,15.63Z"/>
  <path class="cls-1" d="M459.16,249.81l48.56-72.42,18.96-27.69s8.67-18.41,26.27-5.7c17.6,12.71,13.45,20.11,5.12,28.2-8.32,8.09-44.54,39.48-44.54,39.48l-40.9,40.06-30.83,30.73-3.76-4.01"/>
  <path class="cls-1" d="M405.91,221.71l18.84-85.13,7.57-32.69s1.37-20.3,22.39-14.88c21.02,5.42,19.85,13.83,15.04,24.4-4.8,10.57-27.1,52.99-27.1,52.99l-23.49,52.21-17.52,39.86-4.97-2.37"/>
  <path class="cls-1" d="M343.95,209.63l-9.32-86.69-3.26-33.4s-5.19-19.68,16.47-21.25c21.65-1.57,23.22,6.77,22.05,18.32s-8.76,58.87-8.76,58.87l-5.59,56.98-3.88,43.36-5.46-.66"/>
  <path class="cls-1" d="M357.03,610.71l9.32,86.69,3.26,33.4s5.19,19.68-16.47,21.25c-21.65,1.57-23.22-6.77-22.05-18.32s8.76-58.87,8.76-58.87l5.59-56.98,3.88-43.36,5.46.66"/>
  <path class="cls-1" d="M459.16,526.79l48.56,72.42,18.96,27.69s8.67,18.41,26.27,5.7c17.6-12.71,13.45-20.11,5.12-28.2-8.32-8.09-44.54-39.48-44.54-39.48l-40.9-40.06-30.83-30.73-3.76,4.01"/>
  <path class="cls-1" d="M501.36,480.72l69.93,52.08,27.11,19.78s14.31,14.46,26.67-3.39c12.36-17.85,5.97-23.44-4.58-28.29-10.55-4.85-55.16-22.36-55.16-22.36l-51.92-24.13-39.32-18.69-2.21,5.04"/>
  <path class="cls-1" d="M501.36,480.72l69.93,52.08,27.11,19.78s14.31,14.46,26.67-3.39c12.36-17.85,5.97-23.44-4.58-28.29-10.55-4.85-55.16-22.36-55.16-22.36l-51.92-24.13-39.32-18.69-2.21,5.04"/>
  <path class="cls-1" d="M523.3,424.13l83.66,24.56,32.29,9.13s18.44,8.6,23.83-12.44c5.39-21.03-2.54-24.06-14.11-24.95-11.57-.89-59.49-1.82-59.49-1.82l-57.07-4.6-43.36-3.88-.32,5.49"/>
  <path class="cls-1" d="M524.1,361.93l87.04-5.11,33.48-2.3s20.26,1.87,18.24-19.75-10.51-21.79-21.7-18.72c-11.19,3.07-56.61,18.36-56.61,18.36l-55.27,14.92-42.13,10.98,1.55,5.28"/>
  <path class="cls-1" d="M410.09,569.97l18.84,85.13,7.57,32.69s1.37,20.3,22.39,14.88c21.02-5.42,19.85-13.83,15.04-24.4-4.8-10.57-27.1-52.99-27.1-52.99l-23.49-52.21-17.52-39.86-4.97,2.37"/>
  <path class="cls-1" d="M242.96,249.81l-47.78-72.42-18.66-27.69s-8.53-18.41-25.85-5.7c-17.32,12.71-13.23,20.11-5.04,28.2s43.83,39.48,43.83,39.48l40.24,40.06,30.34,30.73,3.7-4.01"/>
  <path class="cls-1" d="M295.36,221.71l-18.54-85.13-7.45-32.69s-1.34-20.3-22.03-14.88c-20.69,5.42-19.53,13.83-14.8,24.4s26.66,52.99,26.66,52.99l23.11,52.21,17.24,39.86,4.89-2.37"/>
  <path class="cls-1" d="M242.96,526.79l-47.78,72.42-18.66,27.69s-8.53,18.41-25.85,5.7-13.23-20.11-5.04-28.2c8.19-8.09,43.83-39.48,43.83-39.48l40.24-40.06,30.34-30.73,3.7,4.01"/>
  <path class="cls-1" d="M201.44,480.72l-68.81,52.08-26.68,19.78s-14.08,14.46-26.24-3.39c-12.16-17.85-5.87-23.44,4.5-28.29,10.38-4.85,54.27-22.36,54.27-22.36l51.08-24.13,38.69-18.69,2.17,5.04"/>
  <path class="cls-1" d="M179.85,424.13l-82.32,24.56-31.77,9.13s-18.15,8.6-23.45-12.44c-5.3-21.03,2.5-24.06,13.89-24.95,11.39-.89,58.53-1.82,58.53-1.82l56.15-4.6,42.67-3.88.32,5.49"/>
  <path class="cls-1" d="M179.07,361.93l-85.64-5.11-32.94-2.3s-19.94,1.87-17.95-19.75c1.99-21.62,10.34-21.79,21.35-18.72,11.01,3.07,55.7,18.36,55.7,18.36l54.38,14.92,41.45,10.98-1.53,5.28"/>
  <path class="cls-1" d="M291.24,569.97l-18.54,85.13-7.45,32.69s-1.34,20.3-22.03,14.88c-20.69-5.42-19.53-13.83-14.8-24.4,4.73-10.57,26.66-52.99,26.66-52.99l23.11-52.21,17.24-39.86,4.89,2.37"/>
  <g>
    <polygon class="cls-1" points="323.33 498.74 335.24 506.91 342.68 513.63 350.49 513.63 350.49 503.21 340.82 502.09 336.91 498.74 329.32 498.74 323.33 498.74"/>
    <polygon class="cls-1" points="377.65 498.74 365.75 506.91 358.3 513.63 350.49 513.63 350.49 503.21 360.17 502.09 364.07 498.74 371.67 498.74 377.65 498.74"/>
  </g>
  <g>
    <polygon class="cls-1" points="350.49 482.74 350.49 442.56 336.91 442.56 330.82 438.84 325.58 438.84 317.02 434.85 311.44 434.85 309.58 442.93 317.39 455.71 327.44 463.77 336.91 472.32 350.49 482.74"/>
    <polygon class="cls-1" points="350.49 482.74 350.49 442.56 364.07 442.56 370.16 438.84 375.41 438.84 383.96 434.85 389.55 434.85 391.41 442.93 383.59 455.71 373.55 463.77 364.07 472.32 350.49 482.74"/>
  </g>
</svg>